<svg xmlns="http://www.w3.org/2000/svg" width="20" height="20" viewBox="0 0 20 20">
    <path fill="#9BA6B2" fill-rule="nonzero" d="M16.19 10.75H7.332a.75.75 0 1 1 0-1.5h8.856l-3.164-3.164a.75.75 0 0 1 1.06-1.06L18.53 9.47a.75.75 0 0 1 0 1.06l-4.444 4.445a.75.75 0 1 1-1.06-1.06l3.163-3.165zm-8.857 6.5a.75.75 0 1 1 0 1.5H3.778a2.528 2.528 0 0 1-2.528-2.528V3.778A2.528 2.528 0 0 1 3.778 1.25h3.555a.75.75 0 1 1 0 1.5H3.778c-.568 0-1.028.46-1.028 1.028v12.444c0 .568.46 1.028 1.028 1.028h3.555z"/>
</svg>
