<?xml version="1.0" encoding="UTF-8"?>
<svg width="60px" height="60px" viewBox="0 0 60 60" version="1.1" xmlns="http://www.w3.org/2000/svg" xmlns:xlink="http://www.w3.org/1999/xlink">
    <!-- Generator: Sketch 53 (72520) - https://sketchapp.com -->
    <title>Icon/60/Upload</title>
    <desc>Created with Sketch.</desc>
    <g id="Icon/60/Upload" stroke="none" stroke-width="1" fill="none" fill-rule="evenodd">
        <path d="M52.9819137,15.7459115 C52.9959973,15.8136499 53.0018521,15.882776 52.9994912,15.9516554 L52.9994912,53.7897143 C52.9994912,56.152 51.0799205,58.0737143 48.7185573,58.0737143 L11.2809339,58.0737143 C8.92128315,58.0737143 7,56.152 7,53.788 L7,5.28571429 C7,2.92171429 8.92128315,1 11.2809339,1 L38.4682891,1 C38.724357,1 38.9542854,1.11272654 39.1112286,1.29128164 L52.7256801,15.2912884 C52.8435667,15.4008895 52.9305877,15.5433159 52.9721847,15.703993 C52.935954,15.5653571 52.8646396,15.4340625 52.7580466,15.3245714 L52.7256801,15.2912884 Z M37.6121023,2.71428571 L11.2809339,2.71428571 C9.86480098,2.71428571 8.71237357,3.868 8.71237357,5.28571429 L8.71237357,53.788 C8.71237357,55.2057143 9.86480098,56.3594286 11.2809339,56.3594286 L48.7185573,56.3594286 C50.1346902,56.3594286 51.2871177,55.2057143 51.2871177,53.788 L51.2871177,16.7782857 L38.4682891,16.7782857 C37.995674,16.7782857 37.6121023,16.3942857 37.6121023,15.9211429 L37.6121023,2.71428571 Z M50.113261,15.0622857 L39.3244759,3.96796694 L39.3244759,15.0622857 L50.113261,15.0622857 Z" id="Combined-Shape" fill="#1F5AF6"></path>
        <path d="M29.9995714,43.0501429 L29.9995714,43.0501429 C29.5264286,43.0501429 29.1424286,42.6661429 29.1424286,42.193 L29.1441429,22.8575714 C29.1441429,22.3844286 29.5281429,22.0004286 30.0012857,22.0004286 L30.0012857,22.0004286 C30.4744286,22.0004286 30.8584286,22.3844286 30.8584286,22.8575714 L30.8567143,42.193 C30.8567143,42.6661429 30.4727143,43.0501429 29.9995714,43.0501429 Z M37.3932857,31.1067143 C37.1738571,31.1067143 36.9544286,31.0227143 36.7864286,30.8564286 L29.9995714,24.0695714 L23.2127143,30.8564286 C22.8784286,31.1907143 22.335,31.1907143 22.0007143,30.8564286 C21.6664286,30.5221429 21.6664286,29.9787143 22.0007143,29.6444286 L29.3944286,22.2507143 C29.7287143,21.9164286 30.2721429,21.9164286 30.6064286,22.2507143 L38.0001429,29.6444286 C38.3344286,29.9787143 38.3344286,30.5221429 38.0001429,30.8564286 C37.8321429,31.0227143 37.6127143,31.1067143 37.3932857,31.1067143 Z" id="Combined-Shape" fill="#1F5AF6" fill-rule="nonzero"></path>
    </g>
</svg>